<?xml version="1.0" encoding="utf-8"?>
<!-- Generator: Adobe Illustrator 27.3.1, SVG Export Plug-In . SVG Version: 6.00 Build 0)  -->
<svg version="1.1" id="Layer_1" xmlns="http://www.w3.org/2000/svg" xmlns:xlink="http://www.w3.org/1999/xlink" x="0px" y="0px"
	 viewBox="0 0 2834.65 2976.38" style="enable-background:new 0 0 2834.65 2976.38;" xml:space="preserve">
<style type="text/css">
	.st0{fill:url(#SVGID_1_);}
	.st1{fill:none;stroke:url(#SVGID_00000003095114407536922350000009021930622230235580_);stroke-width:5;stroke-miterlimit:10;}
</style>
<linearGradient id="SVGID_1_" gradientUnits="userSpaceOnUse" x1="2947.4446" y1="1934.2943" x2="5010.1704" y2="1934.2943" gradientTransform="matrix(-1.0163 0 0 -1.0163 5494.4526 3460.3843)">
	<stop  offset="0" style="stop-color:#62BFEC"/>
	<stop  offset="1" style="stop-color:#6E499C"/>
</linearGradient>
<path class="st0" d="M2498.93,847.95c0-22.15-17.95-40.1-40.1-40.1c-22.15,0-40.1,17.95-40.1,40.1c0,22.15,17.95,40.1,40.1,40.1
	C2480.97,888.05,2498.93,870.1,2498.93,847.95z M1336.08,1158.71c0-22.15-17.95-40.1-40.1-40.1c-22.15,0-40.1,17.95-40.1,40.1
	s17.95,40.1,40.1,40.1C1318.13,1198.81,1336.08,1180.86,1336.08,1158.71z M1165.66,547.22c0-22.15-17.95-40.1-40.1-40.1
	c-22.15,0-40.1,17.95-40.1,40.1c0,22.15,17.95,40.1,40.1,40.1C1147.71,587.32,1165.66,569.36,1165.66,547.22z M1987.68,2075.96
	c0-19.38-15.71-35.09-35.09-35.09c-19.38,0-35.09,15.71-35.09,35.09c0,19.38,15.71,35.09,35.09,35.09
	C1971.97,2111.05,1987.68,2095.34,1987.68,2075.96z M1867.38,1324.12c0-19.38-15.71-35.09-35.09-35.09
	c-19.38,0-35.09,15.71-35.09,35.09c0,19.38,15.71,35.09,35.09,35.09C1851.67,1359.2,1867.38,1343.5,1867.38,1324.12z
	 M1596.72,1153.7c0-19.38-15.71-35.09-35.09-35.09c-19.38,0-35.09,15.71-35.09,35.09c0,19.38,15.71,35.09,35.09,35.09
	C1581.01,1188.79,1596.72,1173.08,1596.72,1153.7z M2298.44,662.5c0-19.38-15.71-35.09-35.09-35.09
	c-19.38,0-35.09,15.71-35.09,35.09c0,19.38,15.71,35.09,35.09,35.09C2282.73,697.59,2298.44,681.88,2298.44,662.5z M1366.15,1745.15
	c0-19.38-15.71-35.09-35.09-35.09s-35.09,15.71-35.09,35.09c0,19.38,15.71,35.09,35.09,35.09S1366.15,1764.53,1366.15,1745.15z
	 M674.46,2146.13c0-19.38-15.71-35.09-35.09-35.09c-19.38,0-35.09,15.71-35.09,35.09s15.71,35.09,35.09,35.09
	C658.75,2181.22,674.46,2165.51,674.46,2146.13z M1195.74,1584.76c0-30.45-24.68-55.14-55.14-55.14s-55.14,24.68-55.14,55.14
	c0,30.45,24.68,55.13,55.14,55.13S1195.74,1615.21,1195.74,1584.76z M654.41,1263.97c0-30.45-24.68-55.14-55.14-55.14
	c-30.45,0-55.13,24.68-55.13,55.14s24.68,55.14,55.13,55.14C629.73,1319.11,654.41,1294.42,654.41,1263.97z M874.95,652.47
	c0-30.45-24.68-55.13-55.13-55.13c-30.45,0-55.14,24.68-55.14,55.13c0,30.45,24.68,55.14,55.14,55.14
	C850.27,707.61,874.95,682.92,874.95,652.47z M1175.69,281.57c0-30.45-24.68-55.13-55.14-55.13s-55.14,24.68-55.14,55.13
	s24.68,55.13,55.14,55.13S1175.69,312.02,1175.69,281.57z M2328.51,431.93c0-30.45-24.68-55.13-55.14-55.13
	s-55.14,24.68-55.14,55.13c0,30.45,24.68,55.13,55.14,55.13S2328.51,462.38,2328.51,431.93z M1977.65,1725.1
	c0-30.45-24.68-55.13-55.14-55.13s-55.14,24.68-55.14,55.13s24.68,55.14,55.14,55.14S1977.65,1755.55,1977.65,1725.1z
	 M1135.59,2707.51c0-30.45-24.68-55.14-55.13-55.14s-55.14,24.68-55.14,55.14s24.68,55.14,55.14,55.14
	S1135.59,2737.96,1135.59,2707.51z M2448.8,1203.82c0-30.45-24.68-55.14-55.14-55.14s-55.14,24.68-55.14,55.14
	c0,30.45,24.68,55.13,55.14,55.13S2448.8,1234.27,2448.8,1203.82z M1636.82,1394.29c0-30.45-24.68-55.14-55.14-55.14
	s-55.13,24.68-55.13,55.14c0,30.45,24.68,55.13,55.13,55.13S1636.82,1424.74,1636.82,1394.29z M864.93,2557.14
	c0-47.06-38.15-85.21-85.21-85.21c-47.06,0-85.21,38.15-85.21,85.21c0,47.06,38.15,85.21,85.21,85.21
	C826.78,2642.35,864.93,2604.2,864.93,2557.14z M2007.72,2567.16c0-47.06-38.15-85.21-85.21-85.21s-85.21,38.15-85.21,85.21
	c0,47.06,38.15,85.21,85.21,85.21S2007.72,2614.22,2007.72,2567.16z M925.07,1780.24c0-44.29-35.91-80.2-80.2-80.2
	s-80.2,35.91-80.2,80.2s35.91,80.2,80.2,80.2S925.07,1824.53,925.07,1780.24z M2408.42,1146.34l44.38-262.1 M2425.07,860.54
	l-516.54,180.71 M2283.58,691.56c-4.05,3.97,147.03,125.79,147.03,125.79 M2251.33,625.95l24.5-140.11 M1125.56,341.71v170.42
	 M875.39,637.81l214.77-65.46 M1152.08,578.44l534.31,422.25 M1721.1,1189.06l-108.09,163.97 M1667.06,1121.91l-63.33,22.48
	 M1793.8,1342.51l-160.82,40.85 M1576.67,1344.17V1193.8 M1913.71,1675.56l-73.05-312.62 M1531.56,1148.69h-200.49 M528.08,1042.14
	l53.21,174.3 M575,1312.42l-81.96,94.46 M625.61,1312.42l182.66,395.55 M908.22,1728.55l190.43-114.62 M1175.76,1626.93
	l120.12,101.62 M808.27,1848.15l-154.1,268.21 M510.57,1949.96l102.96,171.07 M637.38,2112.31l-37.07-793.47 M613.53,2177.74
	l-120.48,165.07 M669.92,2167.15l888.27,162.7 M851.27,2598.92l184.23,85.75 M1742,2279.84l182.03-178.92 M1742,2411.46
	l115.89,104.48 M1657.92,1081.21c0-71.97,58.35-130.32,130.32-130.32c71.97,0,130.32,58.35,130.32,130.32
	s-58.35,130.32-130.32,130.32C1716.26,1211.53,1657.92,1153.19,1657.92,1081.21z M1667.79,1081.21
	c0,66.35,53.79,120.14,120.14,120.14c66.35,0,120.14-53.79,120.14-120.14c0-66.35-53.79-120.14-120.14-120.14
	C1721.58,961.07,1667.79,1014.86,1667.79,1081.21z M1883.41,1081.21c0-52.56-42.61-95.17-95.17-95.17
	c-52.56,0-95.17,42.61-95.17,95.17s42.61,95.17,95.17,95.17C1840.8,1176.38,1883.41,1133.77,1883.41,1081.21z M402.55,948.45
	c0-55.9,45.31-101.21,101.21-101.21s101.21,45.31,101.21,101.21s-45.31,101.21-101.21,101.21S402.55,1004.35,402.55,948.45z
	 M410.22,948.45c0,51.53,41.77,93.3,93.3,93.3c51.53,0,93.3-41.77,93.3-93.3c0-51.53-41.77-93.3-93.3-93.3
	C451.99,855.15,410.22,896.92,410.22,948.45z M577.67,948.45c0-40.82-33.09-73.91-73.91-73.91s-73.91,33.09-73.91,73.91
	s33.09,73.91,73.91,73.91S577.67,989.27,577.67,948.45z M1553.55,2348.23c0-59.42,48.17-107.59,107.59-107.59
	s107.59,48.17,107.59,107.59c0,59.42-48.17,107.59-107.59,107.59S1553.55,2407.65,1553.55,2348.23z M1561.7,2348.23
	c0,54.78,44.41,99.19,99.19,99.19c54.78,0,99.19-44.41,99.19-99.19c0-54.78-44.41-99.19-99.19-99.19
	C1606.11,2249.04,1561.7,2293.45,1561.7,2348.23z M1739.71,2348.23c0-43.39-35.18-78.57-78.57-78.57
	c-43.39,0-78.57,35.18-78.57,78.57c0,43.39,35.18,78.57,78.57,78.57C1704.54,2426.8,1739.71,2391.62,1739.71,2348.23z"/>
<linearGradient id="SVGID_00000018940386539269067940000013850475542790335128_" gradientUnits="userSpaceOnUse" x1="2990.3667" y1="1928.226" x2="4928.4204" y2="1928.226" gradientTransform="matrix(-1.0163 0 0 -1.0163 5494.4526 3460.3843)">
	<stop  offset="0" style="stop-color:#62BFEC"/>
	<stop  offset="1" style="stop-color:#6E499C"/>
</linearGradient>
<path style="fill:none;stroke:url(#SVGID_00000018940386539269067940000013850475542790335128_);stroke-width:5;stroke-miterlimit:10;" d="
	M2452.8,868.77l-47.8,295.54 M2434.64,856.07l-527.65,185.18 M2441.83,828.54l-173.39-149.89 M2251.33,646.27l24.5-173.39
	 M1125.56,308.38v207.68 M859.12,643.09l242.62-73.67 M1689.85,1003.2l-547.47-430.85 M1585.38,1150.87l84.79-29.85
	 M1576.67,1373.48v-197.09 M1607.92,1366.49l114-179.42 M1621.9,1388.72l186.73-49.56 M1837.84,1353.03l75.87,332.3
	 M1306.24,1739.31l-142.27-122.58 M1105.54,1609.74L895.95,1735.5 M618.84,1299.17l193.91,423.62 M577.76,1307.43l-90.19,106.07
	 M637.38,2117.2l-38.1-809.78 M616.5,2124.4l-107.76-177.2 M652.07,2118.9l162.27-280.51 M618.84,2167.15l-130.64,181.87
	 M1559.02,2329.85L657.78,2164.2 M1740.5,2282.02l193.87-190.85 M1863.56,2521.46l-123.05-109.99 M836.89,2591.64 M584.11,1221.05
	l-56.68-181.01 M1312.59,1158.71c0,0,227.21-4.83,227.85-5.01 M1047.11,2690.72l-215.94-99.08"/>
</svg>
