<?xml version="1.0" encoding="utf-8"?>
<!-- Generator: Adobe Illustrator 27.3.1, SVG Export Plug-In . SVG Version: 6.00 Build 0)  -->
<svg version="1.1" xmlns="http://www.w3.org/2000/svg" xmlns:xlink="http://www.w3.org/1999/xlink" x="0px" y="0px"
	 viewBox="0 0 2834.65 2976.38" style="enable-background:new 0 0 2834.65 2976.38;" xml:space="preserve">
<style type="text/css">
	.st0{fill:url(#SVGID_1_);}
	.st1{fill:#FFFFFF;stroke:#221F1F;stroke-miterlimit:10;}
	.st2{fill:none;stroke:url(#SVGID_00000175281518555029065460000005161326146333868448_);stroke-width:5;stroke-miterlimit:10;}
</style>
<g id="Layer_1">
	<linearGradient id="SVGID_1_" gradientUnits="userSpaceOnUse" x1="78.9873" y1="1525.437" x2="2738.6902" y2="1525.437">
		<stop  offset="0" style="stop-color:#62BFEC"/>
		<stop  offset="1" style="stop-color:#6E499C"/>
	</linearGradient>
	<path class="st0" d="M487.22,1062.04c12.19,0,22.07,9.88,22.07,22.07s-9.88,22.07-22.07,22.07s-22.07-9.88-22.07-22.07
		S475.03,1062.04,487.22,1062.04z M78.99,1376.49c0,12.19,9.88,22.07,22.07,22.07s22.07-9.88,22.07-22.07s-9.88-22.07-22.07-22.07
		S78.99,1364.3,78.99,1376.49z M200.35,1045.49c0,12.19,9.88,22.07,22.07,22.07c7.87,0,14.78-4.12,18.69-10.33
		c2.14-3.4,3.38-7.43,3.38-11.74c0-12.19-9.88-22.07-22.07-22.07S200.35,1033.3,200.35,1045.49z M421.02,1806.79
		c0,12.19,9.88,22.07,22.07,22.07s22.07-9.88,22.07-22.07s-9.88-22.07-22.07-22.07S421.02,1794.6,421.02,1806.79z M387.92,1448.2
		c0,12.19,9.88,22.07,22.07,22.07s22.07-9.88,22.07-22.07s-9.88-22.07-22.07-22.07S387.92,1436.02,387.92,1448.2z M807.18,1740.59
		c0,12.19,9.88,22.07,22.07,22.07s22.07-9.88,22.07-22.07s-9.88-22.07-22.07-22.07S807.18,1728.4,807.18,1740.59z M1105.08,2093.65
		c0,12.19,9.88,22.07,22.07,22.07s22.07-9.88,22.07-22.07s-9.88-22.07-22.07-22.07S1105.08,2081.46,1105.08,2093.65z M647.2,1045.49
		c0,12.19,9.88,22.07,22.07,22.07s22.07-9.88,22.07-22.07s-9.88-22.07-22.07-22.07S647.2,1033.3,647.2,1045.49z M1071.98,907.57
		c0,12.19,9.88,22.07,22.07,22.07s22.07-9.88,22.07-22.07s-9.88-22.07-22.07-22.07S1071.98,895.39,1071.98,907.57z M1176.8,1492.34
		c0,12.19,9.88,22.07,22.07,22.07s22.07-9.88,22.07-22.07s-9.88-22.07-22.07-22.07S1176.8,1480.15,1176.8,1492.34z M1364.36,1613.7
		c0,12.19,9.88,22.07,22.07,22.07s22.07-9.88,22.07-22.07s-9.88-22.07-22.07-22.07S1364.36,1601.52,1364.36,1613.7z
		 M1585.03,1806.79c0,12.19,9.88,22.07,22.07,22.07s22.07-9.88,22.07-22.07s-9.88-22.07-22.07-22.07S1585.03,1794.6,1585.03,1806.79
		z M2224.96,1635.77c0,12.19,9.88,22.07,22.07,22.07s22.07-9.88,22.07-22.07s-9.88-22.07-22.07-22.07
		S2224.96,1623.58,2224.96,1635.77z M2318.74,1972.28c0,12.19,9.88,22.07,22.07,22.07s22.07-9.88,22.07-22.07
		s-9.88-22.07-22.07-22.07S2318.74,1960.1,2318.74,1972.28z M1276.1,1710.24c0,10.66,8.64,19.31,19.31,19.31s19.31-8.64,19.31-19.31
		c0-10.66-8.64-19.31-19.31-19.31S1276.1,1699.58,1276.1,1710.24z M421.02,2201.22c0,10.66,8.64,19.31,19.31,19.31
		c10.66,0,19.31-8.64,19.31-19.31s-8.64-19.31-19.31-19.31C429.66,2181.92,421.02,2190.56,421.02,2201.22z M150.7,1754.38
		c0,10.66,8.64,19.31,19.31,19.31s19.31-8.64,19.31-19.31c0-10.66-8.64-19.31-19.31-19.31S150.7,1743.71,150.7,1754.38z
		 M718.92,2217.77c0,10.66,8.64,19.31,19.31,19.31s19.31-8.64,19.31-19.31c0-10.66-8.64-19.31-19.31-19.31
		S718.92,2207.11,718.92,2217.77z M1320.23,1555.78c0,10.66,8.64,19.31,19.31,19.31c10.66,0,19.31-8.64,19.31-19.31
		c0-10.66-8.64-19.31-19.31-19.31C1328.87,1536.47,1320.23,1545.11,1320.23,1555.78z M1254.03,1279.95
		c0,10.66,8.64,19.31,19.31,19.31c10.66,0,19.31-8.64,19.31-19.31c0-10.66-8.64-19.31-19.31-19.31
		C1262.67,1260.64,1254.03,1269.28,1254.03,1279.95z M1408.5,1180.65c0,10.66,8.64,19.31,19.31,19.31
		c10.66,0,19.31-8.64,19.31-19.31c0-10.66-8.64-19.31-19.31-19.31C1417.14,1161.34,1408.5,1169.98,1408.5,1180.65z M1585.03,1428.9
		c0,10.66,8.64,19.31,19.31,19.31c10.66,0,19.31-8.64,19.31-19.31c0-10.66-8.64-19.31-19.31-19.31
		C1593.67,1409.59,1585.03,1418.23,1585.03,1428.9z M1651.23,1279.95c0,10.66,8.64,19.31,19.31,19.31
		c10.66,0,19.31-8.64,19.31-19.31c0-10.66-8.64-19.31-19.31-19.31C1659.87,1260.64,1651.23,1269.28,1651.23,1279.95z M1866.38,1131
		c0,10.66,8.64,19.31,19.31,19.31c10.66,0,19.31-8.64,19.31-19.31c0-10.66-8.64-19.31-19.31-19.31
		C1875.02,1111.69,1866.38,1120.33,1866.38,1131z M1932.58,1544.75c0,10.66,8.64,19.31,19.31,19.31c10.66,0,19.31-8.64,19.31-19.31
		c0-10.66-8.64-19.31-19.31-19.31C1941.22,1525.44,1932.58,1534.08,1932.58,1544.75z M2081.53,1638.53
		c0,10.66,8.64,19.31,19.31,19.31s19.31-8.64,19.31-19.31c0-10.66-8.64-19.31-19.31-19.31S2081.53,1627.86,2081.53,1638.53z
		 M1695.36,1908.84c0,10.66,8.64,19.31,19.31,19.31c10.66,0,19.31-8.64,19.31-19.31c0-10.66-8.64-19.31-19.31-19.31
		C1704.01,1889.53,1695.36,1898.18,1695.36,1908.84z M1231.96,948.95c0,10.66,8.64,19.31,19.31,19.31
		c10.66,0,19.31-8.64,19.31-19.31s-8.64-19.31-19.31-19.31C1240.61,929.64,1231.96,938.29,1231.96,948.95z M1353.33,860.68
		c0,10.66,8.64,19.31,19.31,19.31c10.66,0,19.31-8.64,19.31-19.31s-8.64-19.31-19.31-19.31
		C1361.97,841.37,1353.33,850.02,1353.33,860.68z M1419.53,1930.91c0,10.66,8.64,19.31,19.31,19.31c10.66,0,19.31-8.64,19.31-19.31
		c0-10.66-8.64-19.31-19.31-19.31C1428.17,1911.6,1419.53,1920.25,1419.53,1930.91z M2208.41,1313.05
		c0,10.66,8.64,19.31,19.31,19.31c10.66,0,19.31-8.64,19.31-19.31s-8.64-19.31-19.31-19.31
		C2217.05,1293.74,2208.41,1302.38,2208.41,1313.05z M2589.06,1092.38c0,10.66,8.64,19.31,19.31,19.31
		c10.66,0,19.31-8.64,19.31-19.31c0-10.66-8.64-19.31-19.31-19.31C2597.7,1073.07,2589.06,1081.72,2589.06,1092.38z
		 M2302.19,1401.31c0,16.76,13.58,30.34,30.34,30.34s30.34-13.58,30.34-30.34c0-16.76-13.58-30.34-30.34-30.34
		S2302.19,1384.56,2302.19,1401.31z M2600.09,1577.85c0,16.76,13.58,30.34,30.34,30.34s30.34-13.58,30.34-30.34
		c0-16.76-13.58-30.34-30.34-30.34S2600.09,1561.09,2600.09,1577.85z M2478.72,1914.36c0,16.76,13.58,30.34,30.34,30.34
		s30.34-13.58,30.34-30.34c0-16.76-13.58-30.34-30.34-30.34S2478.72,1897.6,2478.72,1914.36z M2313.22,2118.48
		c0,16.76,13.58,30.34,30.34,30.34s30.34-13.58,30.34-30.34s-13.58-30.34-30.34-30.34S2313.22,2101.72,2313.22,2118.48z
		 M1491.25,2267.42c0,16.76,13.58,30.34,30.34,30.34c16.76,0,30.34-13.58,30.34-30.34s-13.58-30.34-30.34-30.34
		C1504.83,2237.08,1491.25,2250.67,1491.25,2267.42z M1678.81,2035.73c0,16.76,13.58,30.34,30.34,30.34
		c16.76,0,30.34-13.58,30.34-30.34s-13.58-30.34-30.34-30.34C1692.4,2005.38,1678.81,2018.97,1678.81,2035.73z M950.62,2024.69
		c0,16.76,13.58,30.34,30.34,30.34s30.34-13.58,30.34-30.34c0-16.76-13.58-30.34-30.34-30.34S950.62,2007.94,950.62,2024.69z
		 M983.72,1522.68c0,16.76,13.58,30.34,30.34,30.34s30.34-13.58,30.34-30.34c0-16.76-13.58-30.34-30.34-30.34
		S983.72,1505.92,983.72,1522.68z M371.37,1169.61c0,16.76,13.58,30.34,30.34,30.34s30.34-13.58,30.34-30.34
		c0-16.76-13.58-30.34-30.34-30.34S371.37,1152.86,371.37,1169.61z M1243,1108.93c0,16.76,13.58,30.34,30.34,30.34
		c16.76,0,30.34-13.58,30.34-30.34c0-16.76-13.58-30.34-30.34-30.34C1256.58,1078.59,1243,1092.17,1243,1108.93z M1871.89,1324.08
		c0,16.76,13.58,30.34,30.34,30.34c16.76,0,30.34-13.58,30.34-30.34c0-16.76-13.58-30.34-30.34-30.34
		C1885.48,1293.74,1871.89,1307.32,1871.89,1324.08z M2335.29,783.45c0,16.76,13.58,30.34,30.34,30.34
		c16.76,0,30.34-13.58,30.34-30.34s-13.58-30.34-30.34-30.34C2348.87,753.11,2335.29,766.69,2335.29,783.45z M1612.61,1610.94
		c0,16.76,13.58,30.34,30.34,30.34c16.76,0,30.34-13.58,30.34-30.34c0-16.76-13.58-30.34-30.34-30.34
		C1626.2,1580.6,1612.61,1594.19,1612.61,1610.94z M2059.46,1506.13c0,16.76,13.58,30.34,30.34,30.34s30.34-13.58,30.34-30.34
		c0-16.76-13.58-30.34-30.34-30.34S2059.46,1489.37,2059.46,1506.13z M2484.24,866.2c0,25.9,20.99,46.89,46.89,46.89
		c25.9,0,46.89-20.99,46.89-46.89s-20.99-46.89-46.89-46.89C2505.23,819.31,2484.24,840.3,2484.24,866.2z M1855.34,860.68
		c0,25.9,20.99,46.89,46.89,46.89s46.89-20.99,46.89-46.89s-20.99-46.89-46.89-46.89S1855.34,834.79,1855.34,860.68z
		 M2451.14,1293.74c0,24.37,19.76,44.13,44.13,44.13s44.13-19.76,44.13-44.13s-19.76-44.13-44.13-44.13
		S2451.14,1269.36,2451.14,1293.74z M1358.85,2126.75c0,24.37,19.76,44.13,44.13,44.13s44.13-19.76,44.13-44.13
		s-19.76-44.13-44.13-44.13S1358.85,2102.38,1358.85,2126.75z M536.87,2082.62c0,24.37,19.76,44.13,44.13,44.13
		s44.13-19.76,44.13-44.13s-19.76-44.13-44.13-44.13S536.87,2058.24,536.87,2082.62z M1507.8,1337.87
		c0,39.61-32.11,71.72-71.72,71.72c-39.61,0-71.72-32.11-71.72-71.72c0-39.61,32.11-71.72,71.72-71.72
		C1475.69,1266.16,1507.8,1298.26,1507.8,1337.87z M1502.36,1337.87c0-36.51-29.6-66.11-66.11-66.11
		c-36.51,0-66.11,29.6-66.11,66.11c0,36.51,29.6,66.11,66.11,66.11C1472.76,1403.99,1502.36,1374.39,1502.36,1337.87z
		 M243.68,1059.91l133.38,96.01 M422.63,1152.47l47.12-54.86 M404.47,1202.71l2.89,220.67 M330.83,1508.47l57.45-48.73
		 M116.64,1394.83l106.16,106.22 M243.02,1609.46l-63.28,123.36 M310.85,1609.46l117.61,181.42 M340.65,1571.11l464.57,165.04
		 M809.1,1728.16L425.89,1462.2 M462.87,1802.86l342.35-55.47 M842.27,1725.3l160.15-175.34 M844.22,1756.2l42.99,44.78
		 M543.85,2108.73l-87.64,76.8 M757.59,2208.23l203.42-162.11 M1005.94,2033.06l104.19,49.43 M941,1890.55l27.02,103.22
		 M972.54,1817.02l303.33-97.75 M1430.16,1911.44l-122.41-182.16 M1434.39,2157.89l74.08,81.86 M1218.89,1505.46l106.84,33.43
		 M1351.96,1569.98l20.4,25.2 M1347.38,1534.62l57.91-133.56 M1368.96,1313.15l-77.39-30.23 M1432.38,1266.86l-6.69-65.45
		 M1502.36,1315.6l147.47-32.67 M1499.37,1372.34l88.48,43.34 M1396.39,1279.45l-104.82-146.13 M1267.85,1259.04l3.32-121.52
		 M1303.43,1118.24l107.38,48.84 M807.3,1137.91l439.41-29.14 M683.44,1064.2l24.85,31.98 M1230.36,944.86L1115.7,913.9
		 M1267.85,938.11l87.63-68.14 M1250.77,969.65l17.08,111.09 M1634.84,1642.58l-24.42,144.24 M1625.67,1799.86l284.26-99.45
		 M1703.54,1892.85c2.23-2.19-80.91-69.23-80.91-69.23 M1721.28,1928.96l-13.48,77.11 M2340.81,2085.38v-93.78 M2478.48,1922.43
		l-118.19,36.02 M2326.21,1955.1l-294.04-232.37 M2013.08,1619.07l59.48-90.23 M2042.82,1656.02l34.85-12.37 M1973.07,1534.62
		l88.5-22.48 M2092.56,1533.71v82.75 M1907.08,1351.34l40.2,172.04 M2117.38,1641.29h110.33 M2669.61,1699.92l-29.28-95.92
		 M2643.79,1551.18l45.1-51.98 M2615.94,1551.18l-100.52-217.68 M2460.41,1322.18l-104.8,63.08 M2313.18,1378.11l-66.1-55.92
		 M2515.42,1256.36l84.8-147.6 M2679.25,1200.34l-56.66-94.14 M2609.46,1110.99l20.4,436.65 M2622.59,1074.98l66.3-90.84
		 M2591.55,1080.81l-488.82-89.54 M2491.75,843.21l-101.38-47.19 M2001.57,1018.8l-100.17,98.46 M2001.57,946.37l-63.78-57.49
		 M1383.71,1337.87c0,28.92,23.45,52.37,52.37,52.37c28.92,0,52.37-23.45,52.37-52.37s-23.45-52.37-52.37-52.37
		C1407.15,1285.5,1383.71,1308.95,1383.71,1337.87z M978.67,1840.83c0,30.46-24.7,55.16-55.16,55.16
		c-30.46,0-55.16-24.7-55.16-55.16c0-30.46,24.7-55.16,55.16-55.16C953.97,1785.67,978.67,1810.36,978.67,1840.83z M974.49,1840.83
		c0-28.08-22.77-50.85-50.85-50.85c-28.08,0-50.85,22.77-50.85,50.85c0,28.08,22.77,50.85,50.85,50.85
		C951.72,1891.68,974.49,1868.91,974.49,1840.83z M883.22,1840.83c0,22.25,18.04,40.28,40.28,40.28c22.25,0,40.28-18.04,40.28-40.28
		c0-22.25-18.04-40.28-40.28-40.28C901.26,1800.55,883.22,1818.58,883.22,1840.83z M345.63,1549.97c0,39.61-32.11,71.72-71.72,71.72
		s-71.72-32.11-71.72-71.72c0-39.61,32.11-71.72,71.72-71.72S345.63,1510.36,345.63,1549.97z M340.2,1549.97
		c0-36.51-29.6-66.11-66.11-66.11c-36.51,0-66.11,29.6-66.11,66.11c0,36.51,29.6,66.11,66.11,66.11
		C310.6,1616.08,340.2,1586.48,340.2,1549.97z M221.54,1549.97c0,28.92,23.45,52.37,52.37,52.37s52.37-23.45,52.37-52.37
		c0-28.93-23.45-52.37-52.37-52.37S221.54,1521.04,221.54,1549.97z M809.96,1124.69c0,30.36-24.61,54.97-54.97,54.97
		c-30.36,0-54.97-24.61-54.97-54.97c0-30.36,24.61-54.97,54.97-54.97C785.34,1069.72,809.96,1094.33,809.96,1124.69z
		 M805.79,1124.69c0-27.99-22.69-50.68-50.68-50.68c-27.99,0-50.68,22.69-50.68,50.68c0,27.99,22.69,50.68,50.68,50.68
		C783.1,1175.37,805.79,1152.68,805.79,1124.69z M714.84,1124.69c0,22.17,17.97,40.15,40.15,40.15s40.15-17.97,40.15-40.15
		s-17.97-40.15-40.15-40.15S714.84,1102.52,714.84,1124.69z M2047.85,1678.42c0,39.61-32.11,71.72-71.72,71.72
		c-39.61,0-71.72-32.11-71.72-71.72c0-39.61,32.11-71.72,71.72-71.72C2015.74,1606.7,2047.85,1638.81,2047.85,1678.42z
		 M2042.41,1678.42c0-36.51-29.6-66.11-66.11-66.11c-36.51,0-66.11,29.6-66.11,66.11c0,36.51,29.6,66.11,66.11,66.11
		C2012.81,1744.53,2042.41,1714.93,2042.41,1678.42z M1923.76,1678.42c0,28.92,23.45,52.37,52.37,52.37
		c28.92,0,52.37-23.45,52.37-52.37c0-28.93-23.45-52.37-52.37-52.37C1947.21,1626.05,1923.76,1649.49,1923.76,1678.42z
		 M2738.69,1751.48c0,30.76-24.94,55.7-55.7,55.7s-55.7-24.94-55.7-55.7c0-30.76,24.94-55.7,55.7-55.7
		S2738.69,1720.72,2738.69,1751.48z M2734.47,1751.48c0-28.36-22.99-51.35-51.35-51.35c-28.36,0-51.35,22.99-51.35,51.35
		c0,28.36,22.99,51.35,51.35,51.35C2711.48,1802.83,2734.47,1779.84,2734.47,1751.48z M2642.32,1751.48
		c0,22.46,18.21,40.67,40.67,40.67s40.67-18.21,40.67-40.67s-18.21-40.67-40.67-40.67S2642.32,1729.02,2642.32,1751.48z
		 M2105.28,981.16c0,32.7-26.51,59.21-59.21,59.21c-32.7,0-59.21-26.51-59.21-59.21c0-32.7,26.51-59.21,59.21-59.21
		C2078.77,921.95,2105.28,948.46,2105.28,981.16z M2100.79,981.16c0-30.15-24.44-54.58-54.58-54.58
		c-30.15,0-54.58,24.44-54.58,54.58c0,30.15,24.44,54.58,54.58,54.58C2076.36,1035.75,2100.79,1011.31,2100.79,981.16z
		 M2002.83,981.16c0,23.88,19.36,43.24,43.24,43.24c23.88,0,43.24-19.36,43.24-43.24s-19.36-43.24-43.24-43.24
		C2022.19,937.92,2002.83,957.28,2002.83,981.16z"/>
	<path class="st1" d="M233.77,1050.63"/>
</g>
<g id="Layer_2">
	
		<linearGradient id="SVGID_00000107551747484510664130000009057377994552437389_" gradientUnits="userSpaceOnUse" x1="109.904" y1="1519.0168" x2="2693.8074" y2="1519.0168">
		<stop  offset="0" style="stop-color:#62BFEC"/>
		<stop  offset="1" style="stop-color:#6E499C"/>
	</linearGradient>
	
		<path style="fill:none;stroke:url(#SVGID_00000107551747484510664130000009057377994552437389_);stroke-width:5;stroke-miterlimit:10;" d="
		M236.56,1055.17l147.5,102.41 M1364.36,878.13 M473.88,1092.92l-54.52,62.99 M404.47,1193.93l2.89,239.07 M392.1,1455.72
		l-62.01,53.36 M111.67,1389.66l113.48,113.24 M243.02,1611.02l-67.04,129.55 M309.73,1607.52l120,185.94 M339.09,1570.48
		l475.57,170.1 M811.17,1745.23l-350.68,57.63 M812.48,1730.44l-388.22-269.83 M835.28,1729.28l176.02-190.39 M842.27,1750.14
		l45.06,51.06 M556.02,2101.97l-115.69,99.25 M747.55,2217.77l220.47-182.05 M968.02,2006.06l-26.92-115.13 M999.55,2030.67
		l115.34,53.83 M971.42,1817.02l311.59-102.33 M1302.58,1719.27l133.5,202.35 M1207.51,1505.46l125.83,37.99 M1347.38,1565.82
		l28.96,35.65 M1343.98,1543.45l61.84-143.52 M1287.2,1279.45l83.45,34.5 M1271.17,1123.34l-3.32,148.42 M1251.27,1108.76
		l-444.83,29.14 M709.94,1097.25l-28.35-35.69 M1267.85,1082.09l-18.04-116.91 M1236.17,946.3l-129.09-34.54 M1264.72,940.53
		l97.63-75.67 M1285.34,1123.34l111.79,156.93 M1417.32,1170.17l-117.1-53.65 M1424.74,1196.03l7.98,72.52 M1500.87,1315.6
		l156.12-35.34 M1593.38,1418.55l-96.7-47.53 M1610.41,1795.33l26.3-162.64 M1620.41,1802.32l290.37-101.91 M1616.45,1817.47
		l95.42,82.49 M1721.28,1917.78l-13.48,95.42 M2340.81,2103.72v-114.29 M2487.44,1919.52l-133.51,40.54 M2030.27,1721.35
		l301.28,237.1 M2087.77,1640.09l-46.66,16.43 M2092.56,1517.58v108.46 M2075.36,1521.43l-62.74,98.74 M2067.67,1509.19
		l-102.76,27.28 M1948.83,1528.84l-41.75-182.87 M2241.38,1316.26l78.29,67.46 M2351.83,1387.56l115.34-69.2 M2619.66,1558.48
		l-106.71-233.13 M2642.27,1553.93l49.63-58.37 M2609.46,1108.3l20.97,445.63 M2620.95,1104.34l59.3,97.51 M2601.38,1107.37
		l-89.3,154.37 M2619.66,1080.81l71.89-100.09 M2102.27,991.28l495.96,91.16 M2002.4,1017.6l-106.69,105.03 M1934.68,885.83
		l67.72,60.53 M2499.67,847.21 M2638.78,1601.47l31.19,99.61 M2237.88,1635.77c0,0-125.04,2.66-125.39,2.76 M2383.98,792.69
		l118.83,54.52 M1512.29,2245.97l-84.35-96.47"/>
</g>
</svg>
