<?xml version="1.0" encoding="UTF-8"?>
<svg id="Layer_1" data-name="Layer 1" xmlns="http://www.w3.org/2000/svg" xmlns:xlink="http://www.w3.org/1999/xlink" viewBox="0 0 465.01 662.98">
  <defs>
    <style>
      .cls-1 {
        fill: url(#linear-gradient-2);
      }

      .cls-2 {
        fill: #fff;
      }

      .cls-3 {
        fill: none;
      }

      .cls-4 {
        fill: url(#linear-gradient-3);
      }

      .cls-5 {
        fill: url(#linear-gradient);
      }

      .cls-6 {
        fill: url(#linear-gradient-4);
      }
    </style>
    <linearGradient id="linear-gradient" x1="130.71" y1="237.55" x2="343.38" y2="237.55" gradientUnits="userSpaceOnUse">
      <stop offset="0" stop-color="#6e4f9f"/>
      <stop offset=".03" stop-color="#6c57a4"/>
      <stop offset=".19" stop-color="#687cbe"/>
      <stop offset=".35" stop-color="#6499d2"/>
      <stop offset=".51" stop-color="#62aee1"/>
      <stop offset=".67" stop-color="#60baea"/>
      <stop offset=".82" stop-color="#60bfed"/>
    </linearGradient>
    <linearGradient id="linear-gradient-2" x1="0" y1="331.49" x2="465.01" y2="331.49" gradientUnits="userSpaceOnUse">
      <stop offset=".09" stop-color="#6e4f9f"/>
      <stop offset=".7" stop-color="#60bfed"/>
    </linearGradient>
    <linearGradient id="linear-gradient-3" x1="145.64" y1="508.83" x2="167.47" y2="508.83" gradientUnits="userSpaceOnUse">
      <stop offset="0" stop-color="#6e4f9f"/>
      <stop offset=".43" stop-color="#6d50a0"/>
      <stop offset=".59" stop-color="#6c57a5"/>
      <stop offset=".7" stop-color="#6b63ad"/>
      <stop offset=".8" stop-color="#6974b9"/>
      <stop offset=".88" stop-color="#668bc8"/>
      <stop offset=".95" stop-color="#63a6db"/>
      <stop offset="1" stop-color="#60bfed"/>
    </linearGradient>
    <linearGradient id="linear-gradient-4" x1="193.94" y1="522.06" x2="219.08" y2="522.06" gradientUnits="userSpaceOnUse">
      <stop offset="0" stop-color="#6e4f9f"/>
      <stop offset=".31" stop-color="#687dbf"/>
      <stop offset=".61" stop-color="#63a1d8"/>
      <stop offset=".85" stop-color="#61b6e7"/>
      <stop offset="1" stop-color="#60bfed"/>
    </linearGradient>
  </defs>
  <path class="cls-5" d="m332.21,187.28c-4.55-9.12-17.54-31.87-44.99-46.31-22.28-11.73-42.57-11.93-51.61-11.91-11.06.02-35.44.4-59.55,16.54-21.35,14.29-30.89,33.19-34.4,40.36-22.14,45.2-4.15,89.74-2.65,93.29,2.97,7.02,23.92,54.32,74.76,64.84,42.31,8.75,75-14.24,82.04-19.19,6.52-4.58,39.42-28.76,46.31-73.44,1.54-10,4.1-36.07-9.92-64.18Zm-76.09,73.44c-21.66,21.13-26.13,30.36-37.05,29.77-6.15-.33-14.77-8.39-31.76-24.48-21.06-19.96-22.93-24.37-23.16-29.11-.54-11.05,7.77-24.06,17.86-25.8,3.62-.63,6.53.36,9.26,1.32,15.79,5.57,17.7,20.86,27.13,22.49,4.58.79,8.73-2.02,21.17-14.56,27.88-28.08,37.62-44.73,47-42.43,2.18.54,4.53,3.25,9.24,8.69,2.68,3.09,10.39,12.01,11.91,18.53,3.14,13.47-18.63,23.4-51.61,55.58Z"/>
  <g>
    <path class="cls-3" d="m237.6,468.47c-9.13,0-16.82-5.71-22.49-9.92-13.78-10.24-30.68-4.45-44.33,0-6.43,2.09-16.74,2.25-23.16-4.63-7.63-8.19-18.89-17.8-18.89-17.8l-34.04,160.71,78.73-36.39,59.08,67.48s34.87-166.73,34.21-168.71c-1.54,2.64-12.66,9.26-29.11,9.26Z"/>
    <path class="cls-3" d="m336.18,130.38c-32.8-28.28-68.45-34.65-82.7-36.39-39.63-4.85-69.62,6.96-76.75,9.92-39.13,16.27-59.39,44.6-64.18,51.61-4.21,6.18-26.63,40.08-24.48,88.66.67,15.25,4.82,55.58,36.39,91.3,34.07,38.54,77.68,46.4,92.63,48.3,8.35,1.06,73.29,8.21,123.06-39.7,45.45-43.76,56.19-112.19,35.07-162.1-11.72-27.69-31.23-44.87-39.04-51.61Z"/>
    <path class="cls-1" d="m434.1,169.2c-3-16.91,13-22.91,8.38-38.37-4.54-15.19-25.62-28.57-41.02-25.58-4.46.86-6.9,2.8-9.26,1.32-6.88-4.3,7.45-24.71-.88-37.49-7.67-11.77-34.12-16.39-47.15-11.3-1.3.51-4.17,1.77-7.1.72-4.37-1.58-5.27-7.01-8.82-16.76-3.88-10.65-5.82-15.98-9.26-18.97-7.98-6.93-20.25-4.73-22.05-4.41-13.32,2.39-14.25,11.37-22.94,12.35-17.26,1.94-26.38-32.08-42.34-30.65-13.67,1.22-15.22,26.91-31.1,29.11-14.02,1.94-20.26-17.07-33.74-15.22-15.51,2.13-13.52,28.18-33.74,38.37-21.44,10.81-42.91-8.78-53.59,1.98-11.19,11.28,7.8,37.43-3.97,49.62-11.14,11.54-35.84-3.89-44.33,6.62-9.19,11.38,15.89,34.22,6.62,54.25-7.81,16.86-31.41,13.26-35.07,27.79-3.77,14.97,20.03,23.8,18.53,43.67-1.4,18.41-22.75,22.86-21.17,37.05,1.76,15.84,28.98,15.75,34.4,35.07,5,17.82-14.61,30.47-7.94,43,6.48,12.17,26.51,3.07,39.04,17.2,12.25,13.81,1.6,32.09,14.56,44.99,7.09,7.06,17.26,8.54,25.14,8.6l-39.7,209.07,99.9-43,75.42,74.76,27.13-109.17,19.19,29.77,44.33-60.87,78.73,23.82-45.65-126.37c2.23.61,5.67,1.19,9.55.33,11.34-2.51,16.24-15.01,16.69-16.21,5.72-15.25-6.64-25.15-1.32-33.08,6.61-9.86,27.73,2.52,37.93-7.5,12.01-11.8-8.44-37.61,4.85-56.46,8.9-12.62,22.87-7.84,27.35-18.97,6.4-15.9-19.98-31-14.56-51.16,3.84-14.25,19.07-14.36,19.85-26.02,1.06-15.92-27.02-20.21-30.88-41.9Zm-201.6,458.72l-59.08-67.48-78.73,36.39,34.04-160.71s11.26,9.61,18.89,17.8c6.41,6.88,16.73,6.72,23.16,4.63,13.65-4.45,30.55-10.24,44.33,0,5.68,4.22,13.36,9.93,22.49,9.92,16.45,0,27.57-6.62,29.11-9.26,0,0-.02-.05-.04-.12-.03-.09-.06-.17-.08-.24-.03-.09-.06-.17-.08-.25-.14-.41-.09-.26,0,0,.03.08.05.16.08.25.02.07.05.15.08.24.02.07.04.12.04.12.66,1.98-34.21,168.71-34.21,168.71Zm142.94-116.89l-54.69-13.23-29.11,41.46-3.97-60.87h7.94l-.88-22.49,26.91-2.65,20.43-29.55,33.38,87.33Zm-35.29-166.95c-49.77,47.91-114.71,40.76-123.06,39.7-14.94-1.9-58.56-9.75-92.63-48.3-31.57-35.72-35.71-76.05-36.39-91.3-2.15-48.57,20.27-82.48,24.48-88.66,4.78-7.01,25.04-35.33,64.18-51.61,7.12-2.96,37.11-14.77,76.75-9.92,14.25,1.74,49.91,8.1,82.7,36.39,7.81,6.73,27.31,23.91,39.04,51.61,21.13,49.9,10.39,118.34-35.07,162.1Z"/>
    <path class="cls-2" d="m266.51,458.59c-.09-.26-.14-.41,0,0h0Z"/>
  </g>
  <polygon class="cls-4" points="167.47 478.39 155.56 478.39 145.64 539.26 156.56 539.26 167.47 478.39"/>
  <polygon class="cls-6" points="219.08 492.95 204.52 488.98 193.94 551.83 206.51 555.14 219.08 492.95"/>
</svg>